<svg
        width="210mm"
        height="297mm"
        viewBox="0 0 210 297"
        version="1.1"
        fill="w"
        id="svg1"
        xml:space="preserve"
        xmlns:inkscape="http://www.inkscape.org/namespaces/inkscape"
        xmlns:sodipodi="http://sodipodi.sourceforge.net/DTD/sodipodi-0.dtd"
        xmlns="http://www.w3.org/2000/svg"
        xmlns:svg="http://www.w3.org/2000/svg"><sodipodi:namedview
     id="namedview1"
     pagecolor="#ffffff"
     bordercolor="#000000"
     borderopacity="0.25"
     inkscape:showpageshadow="2"
     inkscape:pageopacity="0.0"
     inkscape:pagecheckerboard="0"
     inkscape:deskcolor="#d1d1d1"
     inkscape:document-units="mm"
     inkscape:zoom="0.72604517"
     inkscape:cx="397.3582"
     inkscape:cy="561.25984"
     inkscape:window-width="1920"
     inkscape:window-height="1017"
     inkscape:window-x="1912"
     inkscape:window-y="-8"
     inkscape:window-maximized="1"
     inkscape:current-layer="layer1" />
    <defs
            id="defs1"/>
    <g
            id="layer1"><path
       style="fill:#000000"
       d="m 79.609587,173.93359 c -1.134569,-0.57787 -1.625636,-1.91442 -1.530646,-4.166 0.152008,-3.60311 1.596888,-5.5657 7.169235,-9.73805 5.146042,-3.85314 6.777537,-5.87751 6.791016,-8.42632 l 0.0058,-1.09874 -2.044114,1.16489 c -1.923505,1.09616 -2.720819,1.31774 -4.305886,1.19666 -0.811883,-0.062 -1.852083,-1.17347 -1.852083,-1.97895 0,-1.98953 3.428022,-5.91065 6.394075,-7.31383 1.978728,-0.93609 3.310333,-1.01214 4.285868,-0.24479 0.606932,0.47742 0.697115,0.74275 0.696951,2.05052 -1.04e-4,0.82619 -0.285277,2.57372 -0.633718,3.8834 -0.793353,2.98198 -0.995673,4.10105 -0.741445,4.10105 0.109405,0 0.999398,-0.80666 1.97776,-1.79258 1.221513,-1.23095 1.780662,-1.99774 1.784653,-2.4474 0.0202,-2.2759 2.978586,-5.33742 5.731636,-5.93143 0.66553,-0.1436 0.96274,-0.0618 1.41386,0.38938 1.17598,1.17598 0.0789,3.47551 -2.64729,5.54869 -1.80371,1.37169 -2.07781,1.8254 -1.40956,2.33324 0.51816,0.39379 2.60781,0.29704 6.47855,-0.29998 l 2.03239,-0.31347 2.28761,-3.57187 c 2.91062,-4.54464 2.86137,-4.49369 3.63849,-3.76363 l 0.60907,0.57219 1.05003,-0.64498 c 1.33194,-0.81815 1.84115,-0.82047 2.64955,-0.0121 0.82923,0.82923 0.82014,1.57301 -0.052,4.25092 -0.90747,2.78652 -0.76531,3.5742 0.64029,3.54772 0.54293,-0.0102 1.18305,-0.0995 1.42249,-0.19843 0.23945,-0.0989 1.51768,-1.81696 2.84053,-3.81787 2.20662,-3.33767 2.47102,-3.63802 3.20268,-3.63802 1.2192,0 1.02588,0.70417 -0.90398,3.29271 -1.9747,2.64868 -2.84165,4.55111 -2.24583,4.92823 0.54519,0.34508 1.75967,0.29354 3.40583,-0.14454 1.5735,-0.41875 1.8625,-0.35068 1.43022,0.33681 -0.51816,0.82408 -1.94406,1.43707 -3.66396,1.57512 -1.3849,0.11117 -1.85683,0.039 -2.59597,-0.39713 l -0.90338,-0.533 -1.54225,0.39279 c -2.58622,0.65869 -4.08944,-0.15744 -4.08944,-2.22024 0,-0.37502 0.42483,-1.62277 0.94407,-2.77277 1.12155,-2.48397 1.10355,-2.97089 -0.11415,-3.08775 -0.75363,-0.0723 -1.0455,0.0853 -1.95947,1.05833 -0.59067,0.62882 -1.79854,2.57207 -2.68417,4.31832 -1.28065,2.52513 -1.73507,3.19269 -2.22011,3.26145 -0.80178,0.11366 -1.3745,-0.38864 -1.3745,-1.20549 0,-0.52121 -0.0959,-0.61848 -0.46302,-0.4696 -2.2737,0.92206 -3.68338,1.26042 -5.75469,1.38128 -2.58622,0.15092 -4.0506,-0.22143 -4.650825,-1.18254 l -0.314081,-0.50292 -1.486298,1.47557 c -0.817464,0.81157 -2.033364,1.91254 -2.701999,2.44661 l -1.215702,0.97102 -1.959041,4.84981 c -1.077472,2.66739 -2.530041,5.80231 -3.227931,6.96647 -2.509231,4.18572 -5.731429,6.57047 -7.595166,5.62121 z m 2.666107,-1.85689 c 1.353419,-0.91207 3.177421,-3.33532 4.69537,-6.23797 2.141546,-4.0951 3.180629,-7.18364 2.416808,-7.18364 -0.324036,0 -2.556508,1.6013 -5.101281,3.65902 -1.723357,1.39352 -3.685085,3.82932 -4.36143,5.41541 -0.173566,0.40703 -0.315574,1.56197 -0.315574,2.56654 0,1.46039 0.09281,1.88054 0.46302,2.09617 0.711314,0.41431 1.23041,0.33996 2.203087,-0.31553 z m 6.638809,-21.88952 c 3.033307,-1.50498 5.247167,-3.54124 5.247167,-4.82623 0,-0.78443 -0.726165,-1.09766 -1.794334,-0.77398 -2.317138,0.70214 -6.58894,4.22258 -7.179521,5.91672 l -0.283985,0.81464 1.195745,-0.16389 c 0.65766,-0.0901 1.924377,-0.52541 2.814928,-0.96726 z m 12.792097,-2.68386 c 0.82083,-0.7207 1.71549,-2.00422 1.71549,-2.46113 0,-0.40372 -0.88162,-0.0521 -1.7241,0.68759 -0.82083,0.7207 -1.715487,2.00422 -1.715487,2.46113 0,0.40372 0.881617,0.0521 1.724097,-0.68759 z m -53.516283,16.70839 c -0.799856,-0.33307 -0.755333,-0.79412 0.07669,-0.79412 2.075782,0 5.014922,-2.77269 6.964287,-6.56989 1.388484,-2.70465 3.575837,-8.66528 3.32739,-9.06727 -0.193253,-0.31269 -1.232739,-0.30304 -2.080613,0.0193 -0.854091,0.32473 -1.47473,0.0958 -1.47473,-0.54395 0,-0.64355 0.857285,-1.16421 2.566583,-1.55876 0.756777,-0.17468 1.484469,-0.45597 1.617093,-0.62509 0.132624,-0.16912 1.02641,-2.07552 1.986191,-4.23646 0.959781,-2.16094 2.048383,-4.32666 2.419115,-4.81271 1.126916,-1.47746 3.945882,-2.63549 6.161539,-2.53114 1.739312,0.0819 2.284222,2.75353 0.881762,4.32316 -0.961278,1.07585 -1.31195,0.80308 -0.703165,-0.54696 0.65553,-1.45371 0.482929,-2.53459 -0.421436,-2.63916 -1.90747,-0.22057 -5.02759,2.4944 -6.693487,5.82433 -0.8452,1.68946 -1.243482,3.65968 -0.736591,3.64377 0.109141,-0.003 1.083354,-0.24155 2.164919,-0.52916 1.081565,-0.28762 2.382241,-0.52294 2.890391,-0.52294 h 0.92391 l -0.613851,0.65341 c -0.343122,0.36524 -1.635852,1.019 -2.931131,1.48233 -3.532624,1.26365 -3.744901,1.44055 -4.29103,3.57599 -0.587982,2.2991 -2.677787,7.16586 -4.118065,9.59021 -1.243474,2.09307 -3.369249,4.53021 -4.624164,5.30146 -1.045009,0.64224 -2.503191,0.89193 -3.291603,0.56363 z m 14.579157,0.004 c -0.905431,-0.37003 -1.008652,-0.79848 -0.192371,-0.79848 2.155826,0 5.090369,-2.73077 7.085279,-6.59328 1.173221,-2.27157 3.332621,-8.03447 3.332621,-8.89393 0,-0.46257 -1.200617,-0.52178 -2.277557,-0.11233 -0.552446,0.21004 -0.810785,0.18918 -1.08781,-0.0879 -0.585694,-0.58569 0.348608,-1.46497 2.02364,-1.90447 0.790018,-0.20728 1.640656,-0.5904 1.890305,-0.85136 0.24965,-0.26097 1.203969,-2.19332 2.120709,-4.29411 1.725895,-3.95504 2.525826,-5.14321 4.13021,-6.13477 1.123187,-0.69417 3.541397,-1.29992 4.377318,-1.0965 2.047608,0.49828 2.359508,3.39964 0.520938,4.84586 -0.36632,0.28815 -0.723612,0.46633 -0.793982,0.39596 -0.07037,-0.0704 0.137384,-0.74472 0.461675,-1.49856 1.447955,-3.36586 -1.477478,-3.49572 -4.702626,-0.20874 -1.497083,1.52578 -3.129016,4.46955 -3.396791,6.12731 -0.186109,1.15218 -0.0822,1.18442 1.889536,0.58635 0.725508,-0.22007 1.951321,-0.49926 2.724029,-0.62043 1.218782,-0.19113 1.394425,-0.16403 1.325683,0.20454 -0.09096,0.4877 -1.510094,1.23841 -4.672612,2.47175 l -2.214211,0.86352 -1.021401,3.13271 c -1.659786,5.09067 -3.930203,9.44616 -6.376343,12.23216 -1.477407,1.68268 -3.911069,2.73944 -5.146239,2.23465 z m 67.526716,-11.00383 c -0.75578,-0.75579 -0.49432,-2.20597 0.91606,-5.08085 1.45724,-2.97043 3.30542,-5.2197 4.05315,-4.93277 0.62198,0.23868 0.54802,1.51494 -0.12287,2.12015 -0.62121,0.56039 -2.88086,4.89467 -2.88086,5.52583 0,0.51834 0.0744,0.50993 1.37966,-0.15596 1.43365,-0.73139 3.31897,-2.65491 5.848,-5.9665 1.77814,-2.32835 2.96202,-3.52955 3.47865,-3.52955 0.43174,0 -0.0219,1.32904 -1.3136,3.84829 -1.63368,3.18627 -1.82472,4.31541 -0.83939,4.96102 0.55205,0.36172 3.1417,1.24486 3.65032,1.24486 0.11074,0 0.23796,-0.50602 0.28271,-1.12448 0.0717,-0.99061 0.16369,-1.13403 0.77289,-1.20472 0.6192,-0.0719 0.7089,0.0283 0.85753,0.95783 0.0913,0.57093 0.33503,1.17835 0.54163,1.34981 0.67487,0.5601 2.15762,0.62233 3.76131,0.15785 2.63116,-0.76205 4.48329,-3.21559 3.9703,-5.25949 -0.11685,-0.46558 -0.51924,-0.7583 -1.55047,-1.12791 -1.16295,-0.41682 -1.40626,-0.61667 -1.47509,-1.21161 -0.0667,-0.57629 0.12828,-0.8651 1.02002,-1.51107 1.18823,-0.86075 3.21261,-1.69215 4.83757,-1.98677 l 1.01266,-0.1836 -0.0866,0.61114 c -0.0596,0.4205 -0.45804,0.79438 -1.27725,1.19854 -0.65484,0.32306 -1.404,0.71416 -1.66479,0.8691 l -0.47417,0.2817 0.8049,0.8049 c 0.73055,0.73056 0.80489,0.96265 0.80489,2.51284 0,2.0792 -0.4193,3.14862 -1.83797,4.6877 -1.282,1.3908 -3.22486,2.30034 -5.31944,2.49027 -1.86641,0.16924 -3.20656,-0.25516 -4.07872,-1.29166 -0.36856,-0.43801 -0.67011,-0.66819 -0.67011,-0.5115 0,0.37541 -2.23481,0.36717 -4.02188,-0.0148 -1.01898,-0.21782 -1.63316,-0.54417 -2.24776,-1.19439 l -0.84568,-0.89468 -1.61686,1.4427 c -2.55729,2.28183 -4.70305,3.08347 -5.66872,2.11781 z m 1.23468,-17.64204 c -0.14654,-0.1819 -0.34917,-0.71769 -0.4503,-1.19063 -0.16694,-0.78073 -0.1259,-0.85989 0.4457,-0.85989 0.86555,0 1.26457,0.47587 1.26457,1.50812 0,0.67776 -0.11116,0.87313 -0.49677,0.87313 -0.27323,0 -0.61667,-0.14883 -0.7632,-0.33073 z"
       id="path2" /></g></svg>
